<svg width="80" height="80" viewBox="0 0 80 80" fill="none" xmlns="http://www.w3.org/2000/svg">
<path fill-rule="evenodd" clip-rule="evenodd" d="M0 9C0 4.02944 4.02944 0 9 0H71C75.9706 0 80 4.02944 80 9V71C80 75.9706 75.9706 80 71 80H9C4.02944 80 0 75.9706 0 71V9ZM6 12C6 8.68629 8.68629 6 12 6H68C71.3137 6 74 8.68629 74 12V68C74 71.3137 71.3137 74 68 74H12C8.68629 74 6 71.3137 6 68V12ZM36.2635 43.3345C38.2161 45.2871 41.3819 45.2871 43.3345 43.3345C45.2871 41.3819 45.2871 38.2161 43.3345 36.2635C41.3819 34.3108 38.2161 34.3108 36.2635 36.2635C34.3108 38.2161 34.3108 41.3819 36.2635 43.3345Z" fill="#090909"/>
</svg>
