<svg width="80" height="80" viewBox="0 0 80 80" fill="none" xmlns="http://www.w3.org/2000/svg">
<path fill-rule="evenodd" clip-rule="evenodd" d="M9 0C4.02944 0 0 4.02944 0 9V71C0 75.9706 4.02944 80 9 80H71C75.9706 80 80 75.9706 80 71V9C80 4.02944 75.9706 0 71 0H9ZM12 6C8.68629 6 6 8.68629 6 12V68C6 71.3137 8.68629 74 12 74H68C71.3137 74 74 71.3137 74 68V12C74 8.68629 71.3137 6 68 6H12ZM54 31C54 33.7614 51.7614 36 49 36C46.2386 36 44 33.7614 44 31C44 28.2386 46.2386 26 49 26C51.7614 26 54 28.2386 54 31ZM36 49C36 46.2386 33.7614 44 31 44C28.2386 44 26 46.2386 26 49C26 51.7614 28.2386 54 31 54C33.7614 54 36 51.7614 36 49Z" fill="#090909"/>
</svg>
