<svg width="80" height="80" viewBox="0 0 80 80" fill="none" xmlns="http://www.w3.org/2000/svg">
<path fill-rule="evenodd" clip-rule="evenodd" d="M0 9C0 4.02944 4.02944 0 9 0H71C75.9706 0 80 4.02944 80 9V71C80 75.9706 75.9706 80 71 80H9C4.02944 80 0 75.9706 0 71V9ZM6 12C6 8.68629 8.68629 6 12 6H68C71.3137 6 74 8.68629 74 12V68C74 71.3137 71.3137 74 68 74H12C8.68629 74 6 71.3137 6 68V12ZM23.5355 30.6066C25.4882 32.5592 28.654 32.5592 30.6066 30.6066C32.5592 28.654 32.5592 25.4882 30.6066 23.5355C28.654 21.5829 25.4882 21.5829 23.5355 23.5355C21.5829 25.4882 21.5829 28.654 23.5355 30.6066ZM43.3345 43.3345C41.3819 45.2871 38.2161 45.2871 36.2635 43.3345C34.3108 41.3819 34.3108 38.2161 36.2635 36.2635C38.2161 34.3108 41.3819 34.3108 43.3345 36.2635C45.2871 38.2161 45.2871 41.3819 43.3345 43.3345ZM48.9914 56.0625C50.944 58.0151 54.1098 58.0151 56.0624 56.0625C58.0151 54.1098 58.0151 50.944 56.0624 48.9914C54.1098 47.0388 50.944 47.0388 48.9914 48.9914C47.0388 50.944 47.0388 54.1098 48.9914 56.0625Z" fill="#090909"/>
</svg>
