<svg width="80" height="80" viewBox="0 0 80 80" fill="none" xmlns="http://www.w3.org/2000/svg">
<path fill-rule="evenodd" clip-rule="evenodd" d="M9 0C4.02944 0 0 4.02944 0 9V71C0 75.9706 4.02944 80 9 80H71C75.9706 80 80 75.9706 80 71V9C80 4.02944 75.9706 0 71 0H9ZM12 6C8.68629 6 6 8.68629 6 12V68C6 71.3137 8.68629 74 12 74H68C71.3137 74 74 71.3137 74 68V12C74 8.68629 71.3137 6 68 6H12ZM30.6066 30.6066C28.654 32.5592 25.4882 32.5592 23.5355 30.6066C21.5829 28.654 21.5829 25.4882 23.5355 23.5355C25.4882 21.5829 28.654 21.5829 30.6066 23.5355C32.5592 25.4882 32.5592 28.654 30.6066 30.6066ZM48.9914 56.0625C50.944 58.0151 54.1098 58.0151 56.0624 56.0625C58.0151 54.1098 58.0151 50.944 56.0624 48.9914C54.1098 47.0388 50.944 47.0388 48.9914 48.9914C47.0388 50.944 47.0388 54.1098 48.9914 56.0625ZM30.6066 48.9914C32.5592 50.944 32.5592 54.1098 30.6066 56.0625C28.654 58.0151 25.4881 58.0151 23.5355 56.0625C21.5829 54.1098 21.5829 50.944 23.5355 48.9914C25.4881 47.0388 28.654 47.0388 30.6066 48.9914ZM56.0624 30.6066C58.0151 28.654 58.0151 25.4882 56.0624 23.5355C54.1098 21.5829 50.944 21.5829 48.9914 23.5355C47.0388 25.4882 47.0388 28.654 48.9914 30.6066C50.944 32.5592 54.1098 32.5592 56.0624 30.6066Z" fill="#090909"/>
</svg>
