<svg width="80" height="80" viewBox="0 0 80 80" fill="none" xmlns="http://www.w3.org/2000/svg">
<path fill-rule="evenodd" clip-rule="evenodd" d="M9 0C4.02944 0 0 4.02944 0 9V71C0 75.9706 4.02944 80 9 80H71C75.9706 80 80 75.9706 80 71V9C80 4.02944 75.9706 0 71 0H9ZM12 6C8.68629 6 6 8.68629 6 12V68C6 71.3137 8.68629 74 12 74H68C71.3137 74 74 71.3137 74 68V12C74 8.68629 71.3137 6 68 6H12ZM29 27C26.2386 27 24 24.7614 24 22C24 19.2386 26.2386 17 29 17C31.7614 17 34 19.2386 34 22C34 24.7614 31.7614 27 29 27ZM24 40C24 42.7614 26.2386 45 29 45C31.7614 45 34 42.7614 34 40C34 37.2386 31.7614 35 29 35C26.2386 35 24 37.2386 24 40ZM29 63C26.2386 63 24 60.7614 24 58C24 55.2386 26.2386 53 29 53C31.7614 53 34 55.2386 34 58C34 60.7614 31.7614 63 29 63ZM46 22C46 24.7614 48.2386 27 51 27C53.7614 27 56 24.7614 56 22C56 19.2386 53.7614 17 51 17C48.2386 17 46 19.2386 46 22ZM51 45C48.2386 45 46 42.7614 46 40C46 37.2386 48.2386 35 51 35C53.7614 35 56 37.2386 56 40C56 42.7614 53.7614 45 51 45ZM46 58C46 60.7614 48.2386 63 51 63C53.7614 63 56 60.7614 56 58C56 55.2386 53.7614 53 51 53C48.2386 53 46 55.2386 46 58Z" fill="#090909"/>
</svg>
