<svg width="33" height="35" viewBox="0 0 33 35" fill="none" xmlns="http://www.w3.org/2000/svg">
<path d="M10.7389 17.8329C11.2564 18.3745 11.9533 18.6727 12.7016 18.6727C13.4264 18.6727 14.1078 18.3905 14.6203 17.878L19.513 12.9854C20.0255 12.4729 20.3077 11.7915 20.3077 11.0668C20.3077 10.342 20.0255 9.66063 19.513 9.14814L14.6202 4.25539C14.0978 3.73299 13.4035 3.44916 12.6642 3.46099C11.9256 3.47111 11.2386 3.77257 10.7301 4.30981C9.72996 5.36637 9.76701 7.07665 10.8127 8.12241L11.1958 8.5055C8.73362 9.06584 6.50237 10.3006 4.68067 12.1223C2.12881 14.6742 0.72348 18.0671 0.72348 21.6759C0.72348 25.2848 2.12888 28.6776 4.68067 31.2294C6.61571 33.1645 9.04698 34.452 11.7116 34.9528C11.8801 34.9845 12.0492 35 12.2174 35C12.8457 35 13.4577 34.7823 13.9503 34.3734C14.5738 33.8561 14.9313 33.095 14.9313 32.2849C14.9313 30.9816 14.0052 29.8606 12.7292 29.6195C8.91696 28.899 6.14998 25.5582 6.14998 21.6757C6.14998 18.6207 7.83073 15.9318 10.3883 14.5577C9.77781 15.5902 9.88971 16.944 10.7389 17.8329ZM7.03551 15.5162C5.56544 17.2317 4.75579 19.4193 4.75579 21.6758C4.75579 26.2279 8.00033 30.1449 12.4706 30.9898C13.0885 31.1065 13.5371 31.6513 13.5371 32.285C13.5371 32.6788 13.3633 33.0488 13.0603 33.3002C12.7561 33.5526 12.3583 33.6555 11.9693 33.5823C9.58176 33.1337 7.40239 31.9791 5.66675 30.2433C3.37828 27.9549 2.11794 24.9121 2.11794 21.6758C2.11794 18.4394 3.37822 15.3967 5.66675 13.1083C7.59558 11.1795 10.0353 9.98445 12.7223 9.65236C12.9868 9.61975 13.2095 9.43915 13.2961 9.18718C13.3827 8.9352 13.3182 8.65589 13.1297 8.46742L11.7988 7.13653C11.2821 6.61974 11.257 5.78186 11.7429 5.26855C11.9904 5.00707 12.3244 4.8603 12.6834 4.85545C12.6896 4.85531 12.6959 4.85531 12.7021 4.85531C13.0543 4.85531 13.3847 4.9921 13.6344 5.24161L18.5271 10.1343C18.7762 10.3834 18.9133 10.7146 18.9133 11.0669C18.9133 11.4192 18.7762 11.7503 18.5271 11.9995L13.6344 16.8922C13.3853 17.1413 13.0541 17.2785 12.7017 17.2785C12.338 17.2785 11.9991 17.1333 11.7473 16.8698C11.2568 16.3563 11.2793 15.5168 11.7978 14.9983L13.2903 13.5058C13.5045 13.2916 13.5559 12.9636 13.4174 12.6941C13.279 12.4247 12.9825 12.2756 12.6836 12.3249C10.4949 12.6867 8.48896 13.82 7.03551 15.5162Z" fill="#090909"/>
<path d="M32.3625 13.3241C32.3625 9.71525 30.9572 6.32237 28.4053 3.77059C26.4702 1.83554 24.039 0.547992 21.3744 0.0471912C20.5764 -0.102721 19.7602 0.108304 19.1356 0.626537C18.5122 1.14374 18.1546 1.90486 18.1546 2.71498C18.1546 4.01832 19.0807 5.13928 20.3566 5.38038C24.1689 6.10089 26.9359 9.44168 26.9359 13.3241C26.9359 16.3793 25.2553 19.068 22.6977 20.4422C23.3082 19.4097 23.1963 18.0559 22.347 17.167C21.8296 16.6254 21.1326 16.3272 20.3844 16.3272C19.6596 16.3272 18.9783 16.6094 18.4657 17.1218L13.573 22.0145C12.5151 23.0725 12.5151 24.7939 13.573 25.8518L18.4657 30.7445C18.9791 31.2579 19.6587 31.5392 20.3832 31.5392C20.396 31.5392 20.4088 31.5391 20.4217 31.539C21.1604 31.5288 21.8473 31.2274 22.3559 30.6901C23.3559 29.6336 23.3189 27.9233 22.2733 26.8775L21.8902 26.4945C24.3523 25.9341 26.5836 24.6993 28.4053 22.8776C30.9572 20.3258 32.3625 16.933 32.3625 13.3241ZM20.3637 25.3476C20.0993 25.3802 19.8765 25.5608 19.7899 25.8128C19.7032 26.0648 19.7678 26.3441 19.9562 26.5325L21.2873 27.8634C21.8039 28.3802 21.829 29.2181 21.3431 29.7314C21.0956 29.9929 20.7616 30.1397 20.4026 30.1445C20.0469 30.1494 19.7058 30.0123 19.4518 29.7583L14.559 24.8657C14.0447 24.3514 14.0447 23.5147 14.559 23.0005L19.4518 18.1078C19.7009 17.8587 20.0321 17.7215 20.3843 17.7215C20.748 17.7215 21.087 17.8667 21.3387 18.1302C21.8292 18.6437 21.8067 19.4833 21.2882 20.0017L19.7957 21.4942C19.5815 21.7084 19.5302 22.0365 19.6686 22.3059C19.8071 22.5754 20.1039 22.7244 20.4024 22.6752C22.5912 22.3133 24.5971 21.18 26.0506 19.4838C27.5207 17.7683 28.3303 15.5808 28.3303 13.3242C28.3303 8.77217 25.0858 4.85511 20.6155 4.01026C19.9975 3.8935 19.549 3.34874 19.549 2.71505C19.549 2.32123 19.7229 1.9512 20.0259 1.69985C20.3302 1.4474 20.7276 1.34445 21.1169 1.41773C23.5043 1.86637 25.6836 3.02096 27.4193 4.75674C29.7078 7.04514 30.9681 10.0879 30.9681 13.3242C30.9681 16.5606 29.7078 19.6033 27.4193 21.8917C25.4904 23.8205 23.0506 25.0155 20.3637 25.3476Z" fill="#090909"/>
</svg>
